<?xml version="1.0" encoding="UTF-8"?>
<svg xmlns="http://www.w3.org/2000/svg" xmlns:xlink="http://www.w3.org/1999/xlink" width="200pt" height="200pt" viewBox="0 0 200 200" version="1.1">
<g id="surface1">
<path style=" stroke:none;fill-rule:nonzero;fill:rgb(0%,0%,0%);fill-opacity:1;" d="M 186.394531 52.199219 C 177.460938 36.890625 165.34375 24.773438 150.039062 15.84375 C 134.730469 6.910156 118.019531 2.445312 99.894531 2.445312 C 81.773438 2.445312 65.054688 6.910156 49.753906 15.84375 C 34.449219 24.773438 22.332031 36.890625 13.398438 52.199219 C 4.464844 67.503906 0 84.214844 0 102.335938 C 0 124.105469 6.351562 143.679688 19.054688 161.0625 C 31.757812 178.449219 48.171875 190.480469 68.285156 197.160156 C 70.628906 197.59375 72.363281 197.289062 73.488281 196.25 C 74.617188 195.210938 75.179688 193.90625 75.179688 192.347656 C 75.179688 192.089844 75.15625 189.75 75.113281 185.324219 C 75.070312 180.902344 75.046875 177.042969 75.046875 173.75 L 72.058594 174.269531 C 70.148438 174.617188 67.742188 174.765625 64.835938 174.722656 C 61.933594 174.683594 58.917969 174.378906 55.796875 173.8125 C 52.675781 173.25 49.769531 171.953125 47.082031 169.914062 C 44.394531 167.875 42.488281 165.207031 41.359375 161.914062 L 40.058594 158.921875 C 39.191406 156.929688 37.828125 154.714844 35.964844 152.289062 C 34.097656 149.859375 32.214844 148.214844 30.304688 147.347656 L 29.394531 146.695312 C 28.789062 146.261719 28.226562 145.738281 27.703125 145.132812 C 27.183594 144.527344 26.792969 143.917969 26.535156 143.3125 C 26.273438 142.703125 26.488281 142.203125 27.183594 141.8125 C 27.878906 141.421875 29.136719 141.230469 30.957031 141.230469 L 33.558594 141.621094 C 35.292969 141.96875 37.4375 143.007812 39.996094 144.742188 C 42.554688 146.476562 44.65625 148.730469 46.304688 151.503906 C 48.300781 155.058594 50.703125 157.769531 53.523438 159.632812 C 56.339844 161.5 59.179688 162.429688 62.042969 162.429688 C 64.902344 162.429688 67.375 162.214844 69.457031 161.78125 C 71.535156 161.347656 73.488281 160.695312 75.308594 159.828125 C 76.089844 154.015625 78.214844 149.550781 81.679688 146.429688 C 76.738281 145.910156 72.296875 145.128906 68.347656 144.089844 C 64.40625 143.046875 60.328125 141.359375 56.125 139.015625 C 51.917969 136.671875 48.425781 133.769531 45.652344 130.300781 C 42.878906 126.832031 40.601562 122.277344 38.824219 116.644531 C 37.046875 111.003906 36.160156 104.503906 36.160156 97.132812 C 36.160156 86.636719 39.585938 77.707031 46.433594 70.335938 C 43.226562 62.445312 43.527344 53.601562 47.34375 43.804688 C 49.859375 43.023438 53.589844 43.609375 58.53125 45.558594 C 63.472656 47.511719 67.09375 49.179688 69.390625 50.566406 C 71.691406 51.953125 73.53125 53.125 74.921875 54.078125 C 82.988281 51.824219 91.3125 50.699219 99.894531 50.699219 C 108.480469 50.699219 116.804688 51.824219 124.871094 54.078125 L 129.8125 50.957031 C 133.195312 48.875 137.183594 46.96875 141.777344 45.234375 C 146.375 43.5 149.886719 43.023438 152.316406 43.804688 C 156.21875 53.605469 156.566406 62.449219 153.355469 70.335938 C 160.207031 77.707031 163.632812 86.640625 163.632812 97.132812 C 163.632812 104.503906 162.742188 111.027344 160.964844 116.707031 C 159.191406 122.390625 156.894531 126.9375 154.074219 130.367188 C 151.253906 133.792969 147.742188 136.675781 143.539062 139.015625 C 139.332031 141.355469 135.253906 143.046875 131.308594 144.089844 C 127.363281 145.128906 122.921875 145.914062 117.980469 146.433594 C 122.484375 150.332031 124.742188 156.492188 124.742188 164.902344 L 124.742188 192.34375 C 124.742188 193.902344 125.28125 195.207031 126.367188 196.246094 C 127.453125 197.285156 129.164062 197.589844 131.503906 197.15625 C 151.625 190.480469 168.035156 178.449219 180.738281 161.0625 C 193.441406 143.675781 199.792969 124.101562 199.792969 102.332031 C 199.789062 84.214844 195.320312 67.503906 186.394531 52.199219 Z M 186.394531 52.199219 "/>
</g>
</svg>
